<svg xmlns="http://www.w3.org/2000/svg" width="100" height="100" viewBox="0 0 100 100" fill="none">
  <path fill-rule="evenodd" clip-rule="evenodd" d="M57.1734 42.485C58.9311 38.673 59.9115 34.4289 59.9115 29.9557C59.9115 13.4116 46.4999 0 29.9558 0C13.4116 0 0 13.4116 0 29.9557C0 34.4289 0.980427 38.673 2.73812 42.485C9.10392 35.5807 18.9302 31.154 29.9558 31.154C40.9813 31.154 50.8076 35.5807 57.1734 42.485Z" fill="white"/>
  <path fill-rule="evenodd" clip-rule="evenodd" d="M42.4849 96.715C38.673 98.4726 34.4289 99.4531 29.9557 99.4531C13.4116 99.4531 -5.08143e-06 86.0414 -3.27352e-06 69.4973C-1.4656e-06 52.9532 13.4116 39.5416 29.9557 39.5416C34.4289 39.5416 38.673 40.522 42.485 42.2797C35.5807 48.6455 31.154 58.4717 31.154 69.4973C31.154 80.5229 35.5807 90.3492 42.4849 96.715Z" fill="white"/>
  <path fill-rule="evenodd" clip-rule="evenodd" d="M96.7149 57.515C98.4726 61.327 99.453 65.5711 99.453 70.0443C99.453 86.5884 86.0414 100 69.4973 100C52.9532 100 39.5415 86.5884 39.5415 70.0443C39.5415 65.5711 40.5219 61.327 42.2796 57.515C48.6454 64.4193 58.4717 68.846 69.4973 68.846C80.5228 68.846 90.3491 64.4193 96.7149 57.515Z" fill="white"/>
  <path fill-rule="evenodd" clip-rule="evenodd" d="M57.515 2.73817C61.327 0.980482 65.5711 5.49107e-05 70.0442 5.47152e-05C86.5884 5.3992e-05 100 13.4117 100 29.9558C100 46.4999 86.5884 59.9116 70.0443 59.9116C65.5711 59.9116 61.327 58.9311 57.515 57.1734C64.4193 50.8076 68.846 40.9814 68.846 29.9558C68.846 18.9302 64.4193 9.10397 57.515 2.73817Z" fill="white"/>
</svg>