<svg viewBox="0 0 639 640" fill="none" xmlns="http://www.w3.org/2000/svg">
  <path fill-rule="evenodd" clip-rule="evenodd" d="M365.244 271.797C376.472 247.445 382.736 220.332 382.736 191.756C382.736 86.0667 297.057 0.388428 191.368 0.388428C85.6783 0.388428 0 86.0667 0 191.756C0 220.332 6.26331 247.445 17.492 271.797C58.159 227.69 120.933 199.411 191.368 199.411C261.803 199.411 324.577 227.69 365.244 271.797Z" fill="#212529"/>
  <path fill-rule="evenodd" clip-rule="evenodd" d="M271.409 618.237C247.057 629.466 219.944 635.729 191.368 635.729C85.6783 635.729 -1.28549e-05 550.051 -8.2813e-06 444.361C-3.70767e-06 338.672 85.6783 252.994 191.368 252.994C219.944 252.994 247.057 259.257 271.409 270.486C227.302 311.153 199.023 373.926 199.023 444.361C199.023 514.797 227.302 577.57 271.409 618.237Z" fill="#212529"/>
  <path fill-rule="evenodd" clip-rule="evenodd" d="M617.849 367.815C629.077 392.167 635.341 419.28 635.341 447.856C635.341 553.545 549.662 639.223 443.973 639.223C338.283 639.223 252.605 553.545 252.605 447.856C252.605 419.28 258.868 392.167 270.097 367.815C310.764 411.921 373.537 440.201 443.973 440.201C514.408 440.201 577.182 411.921 617.849 367.815Z" fill="#212529"/>
  <path fill-rule="evenodd" clip-rule="evenodd" d="M367.426 17.8809C391.778 6.6522 418.891 0.388895 447.467 0.388894C553.157 0.388889 638.835 86.0672 638.835 191.757C638.835 297.446 553.157 383.125 447.467 383.125C418.891 383.125 391.778 376.861 367.426 365.632C411.533 324.965 439.812 262.192 439.812 191.757C439.812 121.321 411.533 58.5479 367.426 17.8809Z" fill="#212529"/>
</svg>
