<svg width="1085" height="965" viewBox="0 0 1085 965" fill="none" xmlns="http://www.w3.org/2000/svg">
<rect width="1085" height="965" fill="#212529"/>
<path d="M907 369.831C907 522.259 783.325 645.827 630.764 645.827C478.203 645.827 354.528 522.259 354.528 369.831C354.528 217.403 69.3335 502.349 221.895 502.349C374.456 502.349 907 217.403 907 369.831Z" fill="url(#paint0_linear_97_2065)"/>
<path fill-rule="evenodd" clip-rule="evenodd" d="M363.027 349.26C359.215 344.79 356.636 339.312 357.067 333.173C358.309 315.487 382.951 319.378 387.744 328.304C392.537 337.231 391.968 359.874 385.773 361.469C383.302 362.106 378.039 360.547 372.683 357.321L376.045 381.086H356.193L363.027 349.26Z" fill="#57331F"/>
<path fill-rule="evenodd" clip-rule="evenodd" d="M373.135 334.941C373.919 345.473 375.993 350.74 379.357 350.74C384.404 350.74 388.686 347.65 390.9 347.65C392.515 347.65 392.154 349.598 391.084 351.042C390.201 352.234 385.902 353.382 385.902 355.229C385.902 357.077 389.299 355.648 389.299 356.743C389.299 358.555 389.896 361.963 386.634 361.963C383.333 361.963 373.868 360.803 372.246 356.078C371.199 353.029 370.523 346.712 370.216 337.125C370.015 337.102 369.812 337.09 369.605 337.09C366.777 337.09 364.484 339.301 364.484 342.028C364.484 343.413 365.075 344.664 366.027 345.561C364.842 347.174 363.514 348.858 361.992 350.597C356.275 347.289 352.032 337.608 357.622 328.307C359.167 323.751 362.664 321.317 366.795 320.187C370.141 318.837 373.614 318.685 376.546 319.494C382.294 319.97 387.426 321.66 388.881 322.663C388.881 327.91 387.826 329.467 378.82 329.33C376.608 330.457 374.906 332.397 373.135 334.941Z" fill="#1E1E1E"/>
<path fill-rule="evenodd" clip-rule="evenodd" d="M354.6 449.478L395.199 552.146L422.429 638.943H433.181L391.553 449.478L354.6 449.478Z" fill="#3D2216"/>
<path fill-rule="evenodd" clip-rule="evenodd" d="M346.425 449.478C345.993 485.556 339.688 534.129 338.681 536.378C338.009 537.878 314.827 556.944 269.133 593.576L276.539 601.495C330.453 570.087 358.658 552.288 361.152 548.099C364.895 541.815 377.078 483.993 386.86 449.478H346.425Z" fill="#57331F"/>
<path fill-rule="evenodd" clip-rule="evenodd" d="M268.142 590.933C265.655 591.811 263.942 592.644 263.002 593.432C261.859 594.39 260.352 595.978 258.479 598.196C259.591 599.521 269.588 611.423 288.468 633.904C292.317 632.258 293.525 630.333 292.091 628.128C290.657 625.924 289.483 624.078 288.57 622.59L282.037 599.785C281.911 599.346 281.453 599.092 281.014 599.218C281.006 599.22 280.999 599.222 280.991 599.224L277.505 600.329C275.087 599.203 273.391 598.061 272.42 596.904C271.63 595.964 270.92 594.347 270.289 592.053C270.046 591.173 269.136 590.656 268.255 590.898C268.217 590.908 268.179 590.92 268.142 590.933Z" fill="#E4E4E4"/>
<path fill-rule="evenodd" clip-rule="evenodd" d="M418.026 634.935C417.101 637.404 416.638 639.25 416.638 640.476C416.638 641.966 416.886 644.141 417.383 647C419.114 647 434.665 647 464.038 647C465.25 642.996 464.55 640.834 461.938 640.514C459.326 640.195 457.156 639.907 455.428 639.649L433.744 629.991C433.327 629.805 432.838 629.992 432.652 630.409C432.648 630.416 432.645 630.423 432.642 630.431L431.249 633.809C428.83 634.936 426.865 635.5 425.354 635.5C424.125 635.5 422.429 635.004 420.265 634.013C419.434 633.632 418.452 633.997 418.071 634.827C418.055 634.862 418.04 634.899 418.026 634.935Z" fill="#E4E4E4"/>
<path fill-rule="evenodd" clip-rule="evenodd" d="M381.897 630.002L433.02 624.459L395.132 449.478H349.343L381.897 630.002Z" fill="#AFB9C5"/>
<path fill-rule="evenodd" clip-rule="evenodd" d="M279.708 580.802L313.241 620.459C348.562 581.917 369.153 556.768 375.017 545.012C380.88 533.257 386.151 501.412 390.829 449.478H339.279C336.724 495.167 335.001 519.075 334.111 521.201C333.222 523.328 315.087 543.194 279.708 580.802Z" fill="#C5CFD6"/>
<path fill-rule="evenodd" clip-rule="evenodd" d="M426.956 439.229L450.388 462.068C457.206 464.974 462.792 468.182 467.147 471.693C468.126 472.874 469.192 475.135 464.584 474.123C459.977 473.111 455.085 472.254 454.219 473.751C453.353 475.248 455.905 477.542 454.304 479.501C453.237 480.808 449.649 476.653 443.539 467.037L419.173 452.684L426.956 439.229ZM312.373 418.559L330.486 418.627C316.69 463.283 309.367 486.665 308.516 488.771C306.602 493.51 310.653 500.728 312.385 504.607C306.744 507.129 307.345 497.789 300.228 501.097C293.733 504.116 288.791 509.587 281.287 504.96C280.364 504.391 279.353 502.25 281.796 500.576C287.882 496.407 296.653 489.109 297.838 486.707C299.454 483.431 304.299 460.715 312.373 418.559Z" fill="#57331F"/>
<path fill-rule="evenodd" clip-rule="evenodd" d="M367.566 367.221L374.719 365.996C385.986 405.791 443.879 432.917 447.433 447.793C448.736 453.249 444.807 456.007 446.837 457.669L437.539 464.469C435.965 462.633 432.605 465.99 425.589 463.642C418.573 461.294 367.566 414.342 367.566 367.221Z" fill="#D25C43"/>
<path fill-rule="evenodd" clip-rule="evenodd" d="M379.598 372.512C378.773 425.198 409.256 438.637 402.466 459.773C396.859 477.226 343.191 495.988 333.904 478.88C330.145 471.955 328.439 463.579 328.246 454.473C325.872 461.469 323.995 467.491 322.614 472.541C320.232 481.252 310.996 482.636 310.996 485.992L298.829 482.636C299.654 478.077 293.918 475.857 295.456 465.673C302.347 420.038 320.862 386.959 351.001 366.435L351.313 361.98C351.44 360.159 353.022 358.786 354.844 358.913L377.124 360.47C378.947 360.597 380.321 362.177 380.194 363.998L379.598 372.512Z" fill="#FF7F63"/>
<path fill-rule="evenodd" clip-rule="evenodd" d="M675.909 354.984C673.268 364.709 669.826 386.569 673.338 389.998H695.56C695.563 389.958 695.565 389.919 695.567 389.88C703.804 388.969 710.21 381.992 710.21 373.52V357.442C710.21 348.35 702.834 340.981 693.735 340.981H692.202C683.939 340.981 677.097 347.059 675.909 354.984Z" fill="#1E1E1E"/>
<path fill-rule="evenodd" clip-rule="evenodd" d="M701.58 370.449C705.111 366.308 707.5 361.233 707.101 355.547C705.95 339.162 683.123 342.767 678.682 351.036C674.242 359.306 674.769 380.282 680.508 381.76C682.797 382.349 687.672 380.906 692.635 377.917L689.52 399.933H707.911L701.58 370.449Z" fill="#D4A181"/>
<path fill-rule="evenodd" clip-rule="evenodd" d="M696.608 367.682C695.761 376.776 696.101 387.161 698.626 389.626H720.848C722.086 368.132 710.12 376.456 710.12 356.219C709.374 355.491 708.669 354.77 707.972 354.148L707.996 353.553C704.148 345.682 699.266 341.747 693.351 341.747C684.477 341.747 681.676 345.872 679.291 349.375C681.075 355.488 687.995 356.395 694.144 360.205C694.869 359.617 695.793 359.264 696.8 359.264C699.128 359.264 701.015 361.15 701.015 363.475C701.015 365.801 699.128 367.686 696.8 367.686C696.736 367.686 696.672 367.685 696.608 367.682Z" fill="#1E1E1E"/>
<path fill-rule="evenodd" clip-rule="evenodd" d="M737.484 538.578C719.101 543.715 703.241 546.284 689.903 546.284C676.566 546.284 664.178 542.328 652.738 534.417C670.727 529.144 685.542 526.508 697.183 526.508C708.824 526.508 722.257 530.531 737.484 538.578Z" fill="#D25C43"/>
<path fill-rule="evenodd" clip-rule="evenodd" d="M673.99 553.689C674.167 553.422 674.317 553.133 674.436 552.819C676.893 546.326 716.251 476.285 720.172 463.48H675.86C672.879 473.216 659.461 534.315 657.573 546.505C651.615 565.734 639.347 628.008 637.781 632.322C636.134 636.86 645.403 641.588 647.873 636.009C651.804 627.131 661.169 602.566 665.338 587.567C669.247 573.505 672.431 560.855 673.99 553.689Z" fill="#BA8B72"/>
<path fill-rule="evenodd" clip-rule="evenodd" d="M710.243 562.24C728.236 566.784 794.054 574.998 798.571 576.287C803.217 577.612 807.291 568.043 801.548 565.971C792.41 562.673 767.23 555.052 751.963 551.943C739.684 549.441 728.479 547.4 720.956 546.205C721.593 525.092 724.507 474.423 722.597 463.48H683.39C685.221 473.974 700.7 550.544 703.577 558.209C704.49 560.945 707.214 562.154 710.243 562.24Z" fill="#D4A181"/>
<path fill-rule="evenodd" clip-rule="evenodd" d="M801.131 563.423C803.533 562.977 805.294 562.852 806.413 563.049C807.774 563.289 809.719 563.865 812.25 564.778C811.972 566.355 809.47 580.531 804.745 607.304C800.894 607.765 799.032 606.78 799.161 604.347C799.289 601.915 799.375 599.891 799.418 598.274L794.087 576.955C793.984 576.545 794.234 576.129 794.645 576.026C794.652 576.025 794.659 576.023 794.666 576.022L797.975 575.294C799.393 573.272 800.224 571.571 800.467 570.193C800.665 569.073 800.485 567.448 799.928 565.315C799.714 564.497 800.205 563.66 801.024 563.447C801.059 563.438 801.095 563.43 801.131 563.423Z" fill="#E4E4E4"/>
<path fill-rule="evenodd" clip-rule="evenodd" d="M650.686 635.286C651.543 637.573 651.972 639.284 651.972 640.419C651.972 641.8 651.742 643.814 651.281 646.463C649.678 646.463 635.272 646.463 608.061 646.463C606.938 642.753 607.587 640.75 610.006 640.455C612.426 640.159 614.436 639.892 616.037 639.653L636.125 630.706C636.512 630.534 636.965 630.707 637.137 631.093C637.14 631.1 637.143 631.106 637.146 631.113L638.437 634.243C640.677 635.287 642.497 635.809 643.898 635.809C645.036 635.809 646.607 635.35 648.612 634.432C649.382 634.079 650.291 634.417 650.644 635.185C650.659 635.219 650.673 635.252 650.686 635.286Z" fill="#E4E4E4"/>
<path fill-rule="evenodd" clip-rule="evenodd" d="M722.471 463.48C705.193 458.541 688.846 458.541 673.428 463.48C668.064 487.932 655.03 497.637 652.738 535.126C678.792 548.06 710.976 525.901 737.796 538.515C745.459 520.872 734.731 478.382 722.471 463.48Z" fill="#FF7F63"/>
<path fill-rule="evenodd" clip-rule="evenodd" d="M648.141 433.093L617.885 428.97C611.833 425.606 606.265 423.329 601.182 422.139C599.752 422.097 597.476 422.617 600.866 425.44C604.256 428.264 607.696 431.388 607.092 432.895C606.488 434.402 603.335 433.841 602.813 436.159C602.465 437.704 607.581 437.955 618.163 436.912L642.712 446.636L648.141 433.093ZM743.183 440.09L726.404 440.153C744.803 481.522 754.397 503.183 755.185 505.134C756.958 509.524 753.206 516.211 751.601 519.804C756.827 522.141 756.27 513.488 762.863 516.552C768.88 519.349 773.458 524.417 780.41 520.131C781.265 519.604 782.202 517.62 779.938 516.07C774.3 512.207 766.175 505.447 765.078 503.222C763.581 500.187 756.282 479.143 743.183 440.09Z" fill="#D4A181"/>
<path fill-rule="evenodd" clip-rule="evenodd" d="M697.222 386.918L684.084 387.793C680.848 417.04 663.224 435.514 623.764 429.26L618.522 466.924C655.403 471.687 687.747 456.934 694.376 416.99C696.092 406.65 697.447 395.89 697.222 386.918Z" fill="#AFB9C5"/>
<path fill-rule="evenodd" clip-rule="evenodd" d="M703.704 383.102L683.798 387.657C683.798 421.864 672.892 443.689 667.298 468.839H721.058C721.815 477.53 722.28 486.462 722.523 495.636H762.776C753.654 447.145 734.402 409.629 705.018 383.09H703.714L703.704 383.102Z" fill="#C5CFD6"/>
<path fill-rule="evenodd" clip-rule="evenodd" d="M712.576 420.038C713.961 441.354 713.146 457.621 710.131 468.839H721.058C719.557 451.624 716.91 435.357 712.576 420.038Z" fill="black" fill-opacity="0.1"/>
<defs>
<linearGradient id="paint0_linear_97_2065" x1="630.765" y1="615.741" x2="630.765" y2="258.736" gradientUnits="userSpaceOnUse">
<stop stop-color="#FF7F63"/>
<stop offset="1" stop-color="#212529" stop-opacity="0"/>
</linearGradient>
</defs>
</svg>
